<?xml version="1.0" encoding="UTF-8" standalone="no"?>
<!DOCTYPE svg PUBLIC "-//W3C//DTD SVG 1.1//EN" "http://www.w3.org/Graphics/SVG/1.1/DTD/svg11.dtd">
<svg width="100%" height="100%" viewBox="0 0 3497 166" version="1.1" xmlns="http://www.w3.org/2000/svg" xmlns:xlink="http://www.w3.org/1999/xlink" xml:space="preserve" xmlns:serif="http://www.serif.com/" style="fill-rule:evenodd;clip-rule:evenodd;stroke-linecap:square;stroke-miterlimit:2;">
    <g>
        <g transform="matrix(1.00685,0,0,1.29245,-14.2124,-7.48947)">
            <rect x="1.753" y="-0.8" width="3493.09" height="143.063"/>
        </g>
        <g transform="matrix(0.520758,0,0,0.522245,2051.21,-811.062)">
            <g>
                <g transform="matrix(1.93116,0,0,1.12605,-1018.16,-248.964)">
                    <path d="M1181.5,1811.82L1181.5,1702.41L1231.97,1702.41C1247.13,1702.41 1254.72,1710.29 1254.72,1726.04L1254.72,1739.4C1254.72,1752.56 1249.46,1760.23 1238.95,1762.4L1254.08,1811.82L1241.21,1811.82L1226.26,1763.03L1193.55,1763.03L1193.55,1811.82L1181.5,1811.82ZM1193.55,1718.58L1193.55,1746.86L1231.97,1746.86C1239.1,1746.86 1242.66,1744.38 1242.66,1739.4L1242.66,1726.04C1242.66,1721.06 1239.1,1718.58 1231.97,1718.58L1193.55,1718.58Z" style="fill:rgb(255,114,0);fill-rule:nonzero;stroke:rgb(255,114,0);stroke-width:10.12px;"/>
                </g>
                <g transform="matrix(1.93116,0,0,1.12605,-1018.16,-248.964)">
                    <path d="M1353.31,1811.82L1340.26,1811.82L1306.82,1722.46L1272.84,1811.82L1259.97,1811.82L1302.38,1702.41L1311.17,1702.41L1353.31,1811.82Z" style="fill:rgb(255,114,0);fill-rule:nonzero;stroke:rgb(255,114,0);stroke-width:10.12px;"/>
                </g>
                <g transform="matrix(1.93116,0,0,1.12605,-1018.16,-248.964)">
                    <path d="M1370.62,1728.52L1370.62,1811.82L1359.2,1811.82L1359.2,1702.41L1368.72,1702.41L1432.24,1786.34L1432.24,1702.41L1443.66,1702.41L1443.66,1811.82L1434.14,1811.82L1370.62,1728.52Z" style="fill:rgb(255,114,0);fill-rule:nonzero;stroke:rgb(255,114,0);stroke-width:10.12px;"/>
                </g>
                <g transform="matrix(1.93116,0,0,1.12605,-1018.16,-248.964)">
                    <path d="M1516.88,1752.15L1528.93,1752.15L1528.93,1788.51C1528.93,1804.05 1521.35,1811.82 1506.18,1811.82L1478,1811.82C1462.84,1811.82 1455.26,1803.95 1455.26,1788.2L1455.26,1726.04C1455.26,1710.29 1462.84,1702.41 1478,1702.41L1527.93,1702.41L1527.93,1718.58L1478,1718.58C1470.87,1718.58 1467.31,1721.06 1467.31,1726.04L1467.31,1788.2C1467.31,1793.17 1470.87,1795.66 1478,1795.66L1506.18,1795.66C1513.31,1795.66 1516.88,1793.28 1516.88,1788.51L1516.88,1752.15Z" style="fill:rgb(255,114,0);fill-rule:nonzero;stroke:rgb(255,114,0);stroke-width:10.12px;"/>
                </g>
                <g transform="matrix(1.93116,0,0,1.12605,-1018.16,-248.964)">
                    <path d="M1549.68,1762.09L1549.68,1795.66L1603.24,1795.66L1603.24,1811.82L1537.63,1811.82L1537.63,1702.41L1603.24,1702.41L1603.24,1718.58L1549.68,1718.58L1549.68,1745.93L1600.52,1745.93L1600.52,1762.09L1549.68,1762.09Z" style="fill:rgb(255,114,0);fill-rule:nonzero;stroke:rgb(255,114,0);stroke-width:10.12px;"/>
                </g>
            </g>
            <g>
                <g transform="matrix(1.93116,0,0,1.12605,-1018.16,-248.964)">
                    <path d="M1678.36,1762.09L1626.16,1762.09L1626.16,1811.82L1614.11,1811.82L1614.11,1702.41L1626.16,1702.41L1626.16,1745.93L1678.36,1745.93L1678.36,1702.41L1690.41,1702.41L1690.41,1811.82L1678.36,1811.82L1678.36,1762.09Z" style="fill:rgb(0,85,192);fill-rule:nonzero;"/>
                </g>
                <g transform="matrix(1.93116,0,0,1.12605,-1018.16,-248.964)">
                    <path d="M1758.74,1795.66C1765.87,1795.66 1769.43,1791.72 1769.43,1783.85L1769.43,1702.41L1781.49,1702.41L1781.49,1783.85C1781.49,1802.5 1773.9,1811.82 1758.74,1811.82L1724.85,1811.82C1709.69,1811.82 1702.1,1802.39 1702.1,1783.54L1702.1,1702.41L1714.16,1702.41L1714.16,1783.54C1714.16,1791.62 1717.72,1795.66 1724.85,1795.66L1758.74,1795.66Z" style="fill:rgb(0,85,192);fill-rule:nonzero;"/>
                </g>
                <g transform="matrix(1.93116,0,0,1.12605,-1018.16,-248.964)">
                    <path d="M1793.18,1702.41L1842.75,1702.41C1857.91,1702.41 1865.49,1710.29 1865.49,1726.04L1865.49,1736.45C1865.49,1745.57 1863.13,1751.89 1858.42,1755.41C1863.13,1759.14 1865.49,1764.84 1865.49,1772.51L1865.49,1788.2C1865.49,1803.95 1857.91,1811.82 1842.75,1811.82L1793.18,1811.82L1793.18,1702.41ZM1842.75,1795.66C1849.87,1795.66 1853.44,1793.17 1853.44,1788.2L1853.44,1770.95C1853.44,1768.67 1852.61,1766.86 1850.95,1765.51C1849.29,1764.16 1846.76,1763.49 1843.38,1763.49L1805.23,1763.49L1805.23,1795.66L1842.75,1795.66ZM1805.23,1718.58L1805.23,1747.33L1843.56,1747.33C1846.82,1747.33 1849.29,1746.63 1850.95,1745.23C1852.61,1743.83 1853.44,1742.04 1853.44,1739.87L1853.44,1726.04C1853.44,1721.06 1849.87,1718.58 1842.75,1718.58L1805.23,1718.58Z" style="fill:rgb(0,85,192);fill-rule:nonzero;"/>
                </g>
            </g>
        </g>
        <g transform="matrix(1.09676,0,0,0.996874,-261.014,-2264.58)">
            <path d="M2660.79,2372.69L240.346,2372.69" style="fill:none;stroke:rgb(255,114,0);stroke-width:8.16px;stroke-miterlimit:1.5;"/>
        </g>
        <g transform="matrix(0.125943,0,0,0.120152,2322.13,-184.397)">
            <path d="M2660.79,2372.69L240.346,2372.69" style="fill:none;stroke:rgb(0,85,192);stroke-width:67.71px;stroke-miterlimit:1.5;"/>
        </g>
    </g>
</svg>
